<?xml version="1.0" encoding="UTF-8" standalone="no"?>
<!-- Created with Inkscape (http://www.inkscape.org/) -->

<svg
   version="1.1"
   id="svg250"
   width="132.29167mm"
   height="132.29167mm"
   viewBox="0 0 500.00002 500.00003"
   sodipodi:docname="logo-1.svg"
   inkscape:version="1.1.1 (c3084ef, 2021-09-22)"
   xmlns:inkscape="http://www.inkscape.org/namespaces/inkscape"
   xmlns:sodipodi="http://sodipodi.sourceforge.net/DTD/sodipodi-0.dtd"
   xmlns="http://www.w3.org/2000/svg"
   xmlns:svg="http://www.w3.org/2000/svg">
  <defs
     id="defs254" />
  <sodipodi:namedview
     id="namedview252"
     pagecolor="#ffffff"
     bordercolor="#666666"
     borderopacity="1.0"
     inkscape:pageshadow="2"
     inkscape:pageopacity="0.0"
     inkscape:pagecheckerboard="0"
     showgrid="false"
     inkscape:snap-global="false"
     units="mm"
     fit-margin-top="0"
     fit-margin-left="0"
     fit-margin-right="0"
     fit-margin-bottom="0"
     inkscape:zoom="1.0264337"
     inkscape:cx="188.5168"
     inkscape:cy="237.71627"
     inkscape:window-width="2048"
     inkscape:window-height="1252"
     inkscape:window-x="3840"
     inkscape:window-y="28"
     inkscape:window-maximized="0"
     inkscape:current-layer="g256"
     inkscape:document-units="mm" />
  <g
     inkscape:groupmode="layer"
     inkscape:label="Image"
     id="g256"
     transform="translate(-2)">
    <path
       style="fill:#000000"
       d="M 130,311.5 V 295 h 5.53212 c 6.41586,0 11.8444,1.9665 13.38739,4.8496 1.85685,3.46956 1.28177,8.80488 -1.26865,11.76991 -1.97143,2.29192 -3.33814,2.80258 -8.5,3.17596 L 133,315.24038 v 6.37981 c 0,5.00428 -0.32341,6.37981 -1.5,6.37981 -1.27273,0 -1.5,-2.5 -1.5,-16.5 z m 14.81144,-1.53896 c 2.69152,-2.50753 2.85006,-7.05241 0.32571,-9.33692 -1.02457,-0.92723 -4.17457,-1.95965 -7,-2.29428 L 133,297.72142 V 304.86071 312 h 4.81144 c 3.45983,0 5.42624,-0.57277 7,-2.03896 z M 165,311.5 c 0,-14 0.22727,-16.5 1.5,-16.5 1.27273,0 1.5,2.5 1.5,16.5 0,14 -0.22727,16.5 -1.5,16.5 -1.27273,0 -1.5,-2.5 -1.5,-16.5 z m 18,15.97359 c 0,-0.28953 4.05,-6.57764 9,-13.97359 4.95,-7.39595 9,-13.90906 9,-14.47359 C 201,298.40503 197.64581,298 192.5,298 c -6.88889,0 -8.5,-0.28431 -8.5,-1.5 0,-1.24638 1.94444,-1.5 11.5,-1.5 6.325,0 11.5,0.37722 11.5,0.83827 0,0.46105 -4.05,7.00945 -9,14.552 -4.95,7.54255 -9,13.91533 -9,14.16173 0,0.2464 4.05,0.448 9,0.448 7.33333,0 9,0.27778 9,1.5 0,1.25 -2,1.5 -12,1.5 -6.6,0 -12,-0.23688 -12,-0.52641 z M 229.53023,313.4795 C 234.7386,305.49322 239,298.74322 239,298.4795 239,298.21577 234.95,298 230,298 c -7.33333,0 -9,-0.27778 -9,-1.5 0,-1.25 2,-1.5 12,-1.5 6.6,0 12,0.2034 12,0.452 0,0.24859 -4.22732,6.88609 -9.39404,14.75 l -9.39404,14.298 9.39404,0.28621 c 7.44995,0.22698 9.39404,0.58914 9.39404,1.75 C 245,327.743 242.8107,328 232.53023,328 H 220.06046 Z M 260,311.5 V 295 h 9.5 c 7.65596,0 9.5,0.283 9.5,1.45794 0,1.12671 -1.76071,1.52429 -7.75,1.75 l -7.75,0.29206 -0.2999,5.75 -0.29991,5.75 h 8.04991 c 6.4888,0 8.0499,0.29089 8.0499,1.5 0,1.20833 -1.55556,1.5 -8,1.5 h -8 v 6 6 h 8 c 6.44444,0 8,0.29167 8,1.5 0,1.22807 -1.72222,1.5 -9.5,1.5 H 260 Z m 36,0 V 295 h 5.53212 c 12.18398,0 18.33888,6.54741 14.01504,14.90881 -0.79906,1.54521 -2.82406,3.37746 -4.5,4.07166 -3.33919,1.38313 -3.71818,2.21775 -1.74911,3.85193 0.71393,0.5925 2.76689,3.1226 4.56213,5.62244 2.99684,4.17302 3.09718,4.54516 1.22554,4.54516 -1.34827,0 -3.65494,-2.18706 -6.81213,-6.45892 -3.36283,-4.55008 -5.43854,-6.47105 -7.02359,-6.5 -2.10678,-0.0385 -2.25,0.37267 -2.25,6.45892 0,5.11111 -0.32051,6.5 -1.5,6.5 -1.27273,0 -1.5,-2.5 -1.5,-16.5 z m 15.05588,-1.34417 c 2.69604,-2.18312 3.08285,-7.44567 0.72088,-9.80764 -0.97345,-0.97345 -3.56456,-1.61119 -6.91666,-1.70238 L 299.5,298.5 l -0.29569,6.75 -0.29569,6.75 h 4.93491 c 3.30594,0 5.68667,-0.60874 7.21235,-1.84417 z M 332,311.5 c 0,-14 0.22727,-16.5 1.5,-16.5 1.27273,0 1.5,2.5 1.5,16.5 0,14 -0.22727,16.5 -1.5,16.5 -1.27273,0 -1.5,-2.5 -1.5,-16.5 z m 17.29075,15.25 c 6.88584,-17.05336 12.94514,-31.38589 13.50597,-31.94672 0.55615,-0.55615 8.93493,18.59198 13.76034,31.44672 0.45909,1.22301 0.16229,1.75 -0.98561,1.75 -0.99663,0 -2.40849,-1.78691 -3.59037,-4.54414 l -1.94785,-4.54415 -7.17709,0.29415 -7.17709,0.29414 -1.54618,4.25 c -1.07927,2.96661 -2.12003,4.25 -3.44651,4.25 -1.12279,0 -1.69382,-0.51145 -1.39561,-1.25 z m 17.16444,-17.27283 c -1.35036,-3.58755 -2.45519,-6.73755 -2.45519,-7 0,-1.28642 -1.82898,-0.25654 -2.26043,1.27283 -0.27153,0.9625 -1.44245,4.1125 -2.60204,7 l -2.10835,5.25 h 5.9406 5.94059 z M 94.93879,240.69699 C 88.732429,238.93907 84.386648,235.63939 81.727361,230.66579 79.649208,226.77906 79.478648,225.0095 79.18126,204.25 L 78.86252,182 H 85.43126 92 v 19.54966 c 0,21.68648 0.567786,24.20024 5.971715,26.43862 3.948395,1.63548 10.754185,0.73027 13.246295,-1.76185 2.98729,-2.98728 3.73235,-8.33549 3.75813,-26.97643 L 115,182 h 6 6 v 21.53212 c 0,22.98399 -0.54546,26.20684 -5.29773,31.30155 -5.44625,5.8387 -17.51538,8.4828 -26.76348,5.86332 z m 79.72825,0.25947 c -5.3365,-1.33613 -13.90802,-7.25369 -17.02784,-11.75559 -10.95997,-15.81525 -5.21516,-36.874 12.2719,-44.98513 14.04161,-6.513 31.96326,-0.18316 39.10245,13.81082 L 211.04065,202 h -6.92033 c -6.54097,0 -7.10727,-0.18695 -10.33072,-3.4104 -8.30343,-8.30343 -21.52756,-5.95952 -26.70377,4.7331 -5.1122,10.5604 0.006,22.52721 11.04957,25.83601 5.19191,1.55554 11.1649,-0.25901 15.66469,-4.7588 C 197.01554,221.18446 197.57774,221 204.16241,221 h 6.96241 l -2.77879,5.10555 c -6.26626,11.5132 -21.02213,18.01987 -33.67899,14.85091 z m 271.66541,-0.74671 C 434.06391,235.82567 425,223.62723 425,211.5 c 0,-17.33798 18.68917,-33.09147 35.08624,-29.57492 19.61906,4.20753 30.4953,24.20348 22.5749,41.50391 -6.45034,14.0894 -22.76777,21.62666 -36.32869,16.78076 z m 14.96529,-12.56079 c 7.59436,-3.17313 12.60974,-12.74182 10.57751,-20.18049 -1.59796,-5.84906 -8.50634,-12.14064 -14.28187,-13.00674 -5.28291,-0.79222 -12.23945,2.00156 -15.58991,6.26099 -6.83522,8.68957 -4.01689,20.98383 5.96649,26.02728 5.10495,2.57894 8.72296,2.82297 13.32778,0.89896 z M 21,211.45228 v -29.54771 l 6.25,0.29771 6.25,0.29772 0.26843,23.25 0.268431,23.25 H 44.51843 55 v 6 6 H 38 21 Z m 215,0 v -29.54771 l 6.25,0.29771 6.25,0.29772 0.2651,29.25 0.26511,29.25 H 242.5151 236 Z m 36,28.9532 c 0,-0.37724 5.2779,-13.69219 11.72867,-29.58877 l 11.72868,-28.90287 5.45009,0.29308 5.45009,0.29308 10.13557,25 c 5.57457,13.75 10.89048,26.9125 11.81314,29.25 l 1.67757,4.25 h -6.90857 -6.90857 l -1.91493,-5.75 -1.91493,-5.75 -11.42855,-0.27966 -11.42854,-0.27966 -1.98986,5.77966 L 285.5,240.5 l -6.75,0.29569 c -3.7125,0.16263 -6.75,-0.013 -6.75,-0.39021 z M 307.9995,218.25 c -2.8e-4,-0.4125 -0.91167,-3.225 -2.02531,-6.25 -1.11365,-3.025 -2.75313,-7.4845 -3.64331,-9.91 l -1.6185,-4.40999 -3.35619,9.28323 c -1.8459,5.10578 -3.35619,9.90278 -3.35619,10.66 0,1.03789 1.72293,1.37676 7,1.37676 3.85,0 6.99977,-0.3375 6.9995,-0.75 z M 353,211.45431 v -29.54569 l 6.6048,0.29569 6.60479,0.29569 9.64521,17.35917 9.6452,17.35917 0.5,-17.35917 0.5,-17.35917 6.25,-0.29772 6.25,-0.29771 V 211.45228 241 h -6.27473 -6.27472 L 376.47527,222.90154 366.5,204.80307 366.22744,222.90154 365.95488,241 H 359.47744 353 Z"
       id="path450" />
  </g>
</svg>
