<?xml version="1.0" encoding="UTF-8" standalone="no"?>
<!-- Created with Inkscape (http://www.inkscape.org/) -->

<svg
   version="1.1"
   id="svg250"
   width="293.4808mm"
   height="107.08906mm"
   viewBox="0 0 1109.2188 404.74606"
   sodipodi:docname="logo-2.svg"
   inkscape:version="1.1.1 (c3084ef, 2021-09-22)"
   xmlns:inkscape="http://www.inkscape.org/namespaces/inkscape"
   xmlns:sodipodi="http://sodipodi.sourceforge.net/DTD/sodipodi-0.dtd"
   xmlns="http://www.w3.org/2000/svg"
   xmlns:svg="http://www.w3.org/2000/svg">
  <defs
     id="defs254" />
  <sodipodi:namedview
     id="namedview252"
     pagecolor="#ffffff"
     bordercolor="#666666"
     borderopacity="1.0"
     inkscape:pageshadow="2"
     inkscape:pageopacity="0.0"
     inkscape:pagecheckerboard="0"
     showgrid="false"
     inkscape:snap-global="false"
     units="mm"
     fit-margin-top="0"
     fit-margin-left="0"
     fit-margin-right="0"
     fit-margin-bottom="0"
     inkscape:zoom="1.0264337"
     inkscape:cx="518.78654"
     inkscape:cy="307.86206"
     inkscape:window-width="2048"
     inkscape:window-height="1252"
     inkscape:window-x="3840"
     inkscape:window-y="28"
     inkscape:window-maximized="0"
     inkscape:current-layer="g256"
     inkscape:document-units="mm" />
  <g
     inkscape:groupmode="layer"
     inkscape:label="Image"
     id="g256"
     transform="translate(328.75468,69.926304)">
    <path
       style="fill:#000000;stroke-width:2.56859"
       d="m -68.333871,289.25593 v -45.56377 h 13.217229 c 15.32865,0 28.29843,5.43037 31.984892,13.3919 4.436359,9.58097 3.062406,24.31415 -3.031024,32.50193 -4.710088,6.329 -7.975422,7.73914 -20.308029,8.7702 l -14.695549,1.22862 v 17.61744 c 0,13.81903 -0.77269,17.61748 -3.583754,17.61748 -3.040774,0 -3.583765,-6.90362 -3.583765,-45.5638 z m 35.387192,-4.24974 c 6.430547,-6.9244 6.809334,-19.47481 0.7782,-25.78334 -2.447884,-2.5605 -9.97379,-5.41146 -16.724289,-6.33552 l -12.273584,-1.68012 v 19.71471 19.71476 h 11.495421 c 8.26616,0 12.964282,-1.58168 16.724252,-5.63049 z m 48.234136,4.24974 c 0,-38.66015 0.54299,-45.56377 3.583812,-45.56377 3.040775,0 3.583765,6.90362 3.583765,45.56377 0,38.66018 -0.54299,45.5638 -3.583765,45.5638 -3.040822,0 -3.583812,-6.90362 -3.583812,-45.5638 z m 43.005276,44.11015 c 0,-0.79951 9.676192,-18.16375 21.502655,-38.58725 11.82644,-20.42347 21.502632,-38.40905 21.502632,-39.96796 0,-1.71591 -8.013762,-2.83436 -20.308028,-2.83436 -16.458832,0 -20.308043,-0.78513 -20.308043,-4.14219 0,-3.44179 4.64559,-4.14216 27.47557,-4.14216 15.111571,0 27.475601,1.04169 27.475601,2.31483 0,1.27317 -9.67619,19.3562 -21.502653,40.1845 -11.826441,20.82831 -21.502628,38.42636 -21.502628,39.10679 0,0.68044 9.676187,1.23714 21.502628,1.23714 17.520663,0 21.502653,0.76706 21.502653,4.14212 0,3.45183 -4.77837,4.14219 -28.670182,4.14219 -15.76861,0 -28.670205,-0.65414 -28.670205,-1.45365 z M 169.46192,294.72222 c 12.44374,-22.05365 22.625,-40.69337 22.625,-41.42161 0,-0.72828 -9.67618,-1.3241 -21.50266,-1.3241 -17.52063,0 -21.5026,-0.7671 -21.5026,-4.14219 0,-3.4518 4.77837,-4.14216 28.67018,-4.14216 15.76859,0 28.67016,0.5617 28.67016,1.24818 0,0.68648 -10.09982,19.01553 -22.44405,40.73125 l -22.44407,39.48311 22.44407,0.79035 c 17.79927,0.62679 22.44405,1.62687 22.44405,4.83249 0,3.3325 -5.23062,4.04219 -29.79252,4.04219 h -29.79257 z m 72.79782,-5.46629 v -45.56377 h 22.69721 c 18.29149,0 22.69724,0.7815 22.69724,4.02604 0,3.11133 -4.20666,4.20923 -18.51616,4.83248 l -18.51615,0.80654 -0.71652,15.87827 -0.71654,15.87828 h 19.23269 c 15.50291,0 19.23268,0.80327 19.23268,4.14216 0,3.33674 -3.71652,4.14218 -19.11347,4.14218 h -19.11345 v 16.56867 16.56864 h 19.11345 c 15.39695,0 19.11347,0.8054 19.11347,4.14212 0,3.39126 -4.11472,4.14219 -22.69724,4.14219 h -22.69721 z m 86.01053,0 v -45.56377 h 13.21723 c 29.10974,0 43.81494,18.08029 33.48448,41.16983 -1.90909,4.26701 -6.74718,9.32663 -10.75132,11.24363 -7.9779,3.81944 -8.8834,6.12417 -4.17892,10.63689 1.70571,1.63614 6.6106,8.62288 10.89974,15.52603 7.16,11.52356 7.39974,12.55119 2.92804,12.55119 -3.22127,0 -8.73233,-6.03943 -16.27543,-17.83595 -8.0344,-12.56477 -12.99364,-17.86941 -16.78061,-17.94934 -5.0335,-0.10644 -5.37566,1.0291 -5.37566,17.83591 0,14.11406 -0.76576,17.94938 -3.58378,17.94938 -3.04077,0 -3.58377,-6.90362 -3.58377,-45.5638 z m 35.97124,-3.71183 c 6.44134,-6.02855 7.36548,-20.56076 1.72231,-27.08322 -2.32574,-2.68813 -8.51639,-4.44921 -16.52517,-4.70102 l -12.80624,-0.40264 -0.70644,18.63971 -0.70648,18.63975 h 11.79041 c 7.89848,0 13.58647,-1.68101 17.23161,-5.09258 z m 50.0393,3.71183 c 0,-38.66015 0.54296,-45.56377 3.58379,-45.56377 3.04077,0 3.58377,6.90362 3.58377,45.56377 0,38.66018 -0.543,45.5638 -3.58377,45.5638 -3.04083,0 -3.58379,-6.90362 -3.58379,-45.5638 z m 41.31074,42.112 c 16.45153,-47.09186 30.92831,-86.67029 32.26822,-88.21899 1.32873,-1.53577 21.34718,51.34067 32.87595,86.83825 1.09687,3.37728 0.38774,4.83254 -2.35481,4.83254 -2.38113,0 -5.75429,-4.93446 -8.57803,-12.54839 l -4.65378,-12.54839 -17.14738,0.81227 -17.14734,0.81227 -3.69414,11.73613 c -2.57855,8.19209 -5.06513,11.73611 -8.23431,11.73611 -2.68255,0 -4.04685,-1.41231 -3.33438,-3.4518 z m 41.00898,-47.69788 c -3.22627,-9.90683 -5.86589,-18.60538 -5.86589,-19.33011 0,-3.5524 -4.36977,-0.70842 -5.4006,3.51485 -0.64873,2.65788 -3.44629,11.3564 -6.21673,19.33007 l -5.03725,14.49757 h 14.1932 14.19312 z M -152.10148,93.737597 c -14.82813,-4.854401 -25.21099,-13.966237 -31.56451,-27.700571 -4.96508,-10.732975 -5.37258,-15.619503 -6.08309,-72.9456728 l -0.76153,-61.4420602 h 15.69391 15.69391 v 53.985234 c 0,59.885946 1.35655,66.827553 14.26752,73.00871 9.43343,4.516291 25.69371,2.016597 31.64782,-4.865234 7.13714,-8.249219 8.91724,-23.017986 8.97882,-74.493861 l 0.0571,-47.634849 h 14.335125 14.335074 v 59.4596768 c 0,63.4689492 -1.303222,72.3686782 -12.657234,86.4374152 -13.012075,16.123213 -41.847425,23.424755 -63.942825,16.191212 z m 190.485259,0.71649 C 25.633913,90.764454 5.1549959,74.423453 -2.2988042,61.991727 -28.484172,18.318847 -14.758783,-39.833668 27.020993,-62.232069 60.56895,-80.217347 103.387,-62.737864 120.44386,-24.094289 l 4.8431,10.972408 h -16.53393 c -15.627552,0 -16.980577,-0.516259 -24.681959,-9.41761 -19.838433,-22.929431 -51.433258,-16.456874 -63.800169,13.070178 -12.2139788,29.161909 0.01342,62.20756 26.399424,71.344612 12.404427,4.295528 26.674995,-0.715221 37.425794,-13.14114 7.6823,-8.879291 9.025493,-9.388647 24.75748,-9.388647 h 16.63444 L 118.849,53.444176 C 103.87778,85.237218 68.623328,103.205 38.383779,94.454087 Z M 687.44182,92.392109 C 658.13003,80.285716 636.47471,46.600455 636.47471,13.111822 c 0,-47.877824 44.65182,-91.380146 83.8274,-81.669412 46.87349,11.618847 72.85882,66.8364903 53.93554,114.610607 -15.41103,38.907058 -54.39635,59.720743 -86.79583,46.339092 z m 35.75482,-34.68589 c 18.14428,-8.76242 30.12691,-35.185784 25.27158,-55.7272427 -3.81783,-16.1518273 -20.3232,-33.5256683 -34.12199,-35.9173293 -12.62187,-2.187669 -29.24226,5.527182 -37.24715,17.28934 -16.33055,23.9957257 -9.59707,57.945634 14.25504,71.872822 12.19666,7.121589 20.84074,7.795466 31.84252,2.48241 z M -328.75468,12.980044 v -81.594287 l 14.93239,0.822116 14.93237,0.822138 0.64133,64.2035235 0.64133,64.2035245 h 25.04237 25.04239 V 78.00572 94.574349 h -40.6161 -40.61608 z m 513.67407,0 v -81.594287 l 14.93237,0.822116 14.93239,0.822138 0.63337,80.772171 0.6334,80.772167 h -15.56579 -15.56574 z m 86.01053,79.952559 c 0,-1.041713 12.60986,-37.810178 28.0219,-81.707662 l 28.02196,-79.813578 13.02127,0.809336 13.02125,0.809312 24.21571,69.0360382 C 390.55067,40.035872 403.25135,76.38333 405.45575,82.838201 l 4.00802,11.736148 H 392.95795 376.4521 l -4.5751,-15.878299 -4.57512,-15.878272 -27.30486,-0.772289 -27.30487,-0.772274 -4.75414,15.9602 -4.75415,15.960182 -16.12699,0.816557 c -8.86979,0.449071 -16.12695,-0.03586 -16.12695,-1.077551 z m 86.00935,-61.181046 c -6.7e-4,-1.139108 -2.17816,-8.90566 -4.83883,-17.259017 -2.66072,-8.3533724 -6.57774,-20.6680199 -8.70454,-27.365888 l -3.86689,-12.177913 -8.01856,25.63507107 C 327.10027,14.683127 323.49191,27.929773 323.49191,30.02079 c 0,2.866059 4.1164,3.801818 16.72429,3.801818 9.19832,0 16.72372,-0.931971 16.72307,-2.071051 z M 464.45364,12.985644 v -81.588681 l 15.78008,0.816513 15.78,0.816535 23.0442,47.93633 23.04412,47.936331 1.19457,-47.936331 1.1946,-47.93633 14.93238,-0.822138 14.93238,-0.822116 V 12.980044 94.574349 H 559.36451 544.37307 L 520.54031,44.596495 496.70755,-5.3813547 496.05637,44.596495 495.40518,94.574349 h -15.47577 -15.47577 z"
       id="path450" />
  </g>
</svg>
