<?xml version="1.0" encoding="UTF-8" standalone="no"?>
<!-- Created with Inkscape (http://www.inkscape.org/) -->

<svg
   width="132.29167mm"
   height="132.29167mm"
   viewBox="0 0 132.29167 132.29167"
   version="1.1"
   id="svg1442"
   inkscape:version="1.1.1 (c3084ef, 2021-09-22)"
   sodipodi:docname="logo-4.svg"
   xmlns:inkscape="http://www.inkscape.org/namespaces/inkscape"
   xmlns:sodipodi="http://sodipodi.sourceforge.net/DTD/sodipodi-0.dtd"
   xmlns="http://www.w3.org/2000/svg"
   xmlns:svg="http://www.w3.org/2000/svg">
  <sodipodi:namedview
     id="namedview1444"
     pagecolor="#ffffff"
     bordercolor="#666666"
     borderopacity="1.0"
     inkscape:pageshadow="2"
     inkscape:pageopacity="0.0"
     inkscape:pagecheckerboard="0"
     inkscape:document-units="mm"
     showgrid="false"
     fit-margin-top="0"
     fit-margin-left="0"
     fit-margin-right="0"
     fit-margin-bottom="0"
     inkscape:zoom="1.8768832"
     inkscape:cx="273.05907"
     inkscape:cy="285.04703"
     inkscape:window-width="2048"
     inkscape:window-height="1252"
     inkscape:window-x="3840"
     inkscape:window-y="28"
     inkscape:window-maximized="0"
     inkscape:current-layer="layer1" />
  <defs
     id="defs1439" />
  <g
     inkscape:label="Layer 1"
     inkscape:groupmode="layer"
     id="layer1"
     transform="translate(-51.869408,-27.119408)">
    <path
       style="fill:#333333;stroke-width:0.264583"
       d="m 96.583992,104.11316 v -2.91042 h 0.754269 c 2.020205,0 3.310419,1.20194 2.645744,2.46472 -0.42295,0.80354 -0.737637,0.96616 -1.878658,0.97082 l -0.992188,0.004 v 1.19062 c 0,0.65485 -0.119062,1.19063 -0.264583,1.19063 -0.160354,0 -0.264584,-1.14653 -0.264584,-2.91042 z m 2.778126,-1.03629 c 0,-0.75358 -0.12251,-0.94483 -0.736333,-1.14943 -1.135433,-0.37848 -1.512626,-0.0956 -1.512626,1.13429 v 1.08186 l 1.124479,-0.0814 1.12448,-0.0814 z m 3.307292,1.1842 c 0,-1.55627 0.11553,-2.83392 0.26458,-2.92604 0.1703,-0.10524 0.26459,0.8792 0.26459,2.76251 0,1.7743 -0.10415,2.92604 -0.26459,2.92604 -0.15949,0 -0.26458,-1.09723 -0.26458,-2.76251 z m 4.75568,0.39141 c 0.87687,-1.30411 1.59432,-2.49473 1.59432,-2.64584 0,-0.15662 -0.62562,-0.27473 -1.45521,-0.27473 -0.80036,0 -1.45521,-0.11906 -1.45521,-0.26458 0,-0.15287 0.83785,-0.26459 1.98438,-0.26459 1.0914,0 1.98437,0.0927 1.98437,0.20608 0,0.11334 -0.71,1.30397 -1.57777,2.64584 l -1.57778,2.43975 h 1.57778 c 0.87546,0 1.57777,0.11777 1.57777,0.26458 0,0.15441 -0.88422,0.26459 -2.12349,0.26459 h -2.12349 z m 5.19737,2.04037 c 0.10709,-0.1819 0.77284,-1.19431 1.47944,-2.24979 1.85503,-2.77089 1.85271,-2.71115 0.10519,-2.71115 -0.81593,0 -1.48351,-0.11906 -1.48351,-0.26458 0,-0.15287 0.83784,-0.26459 1.98437,-0.26459 1.09141,0 1.98412,0.0893 1.98382,0.19844 -2.7e-4,0.10914 -0.7147,1.27 -1.58754,2.57969 l -1.58699,2.38125 1.58754,0.0788 c 2.3585,0.11703 1.92317,0.58269 -0.54474,0.58269 -1.63327,0 -2.08671,-0.0774 -1.93758,-0.33073 z m 6.77289,-2.51354 0.0751,-2.84428 1.65365,-0.0788 c 0.97376,-0.0464 1.65364,0.0295 1.65364,0.18461 0,0.14486 -0.62508,0.29937 -1.38906,0.34336 l -1.38906,0.08 -0.0821,0.99219 -0.0821,0.99219 h 1.47118 c 0.80915,0 1.47118,0.11906 1.47118,0.26458 0,0.14552 -0.65484,0.26458 -1.45521,0.26458 h -1.4552 v 1.05834 1.05833 h 1.4552 c 0.80037,0 1.45521,0.11906 1.45521,0.26458 0,0.1494 -0.75263,0.26459 -1.72874,0.26459 h -1.72874 z m 6.29281,0.0818 c 0,-1.67836 0.11121,-2.83125 0.28337,-2.93765 0.15585,-0.0963 0.81295,-0.0957 1.46022,0.001 1.44763,0.21708 2.18832,1.1137 1.806,2.18617 -0.13326,0.37383 -0.48042,0.81109 -0.77147,0.97168 -0.29104,0.1606 -0.57328,0.31627 -0.6272,0.34594 -0.0539,0.0297 0.2835,0.53568 0.74983,1.12448 0.61074,0.77111 0.73422,1.07053 0.44149,1.07053 -0.22352,0 -0.77952,-0.5423 -1.23554,-1.20511 -0.45603,-0.66282 -0.96776,-1.15958 -1.13719,-1.10392 -0.16943,0.0557 -0.34466,0.59796 -0.38941,1.20511 -0.0447,0.60718 -0.19358,1.10395 -0.33073,1.10395 -0.14018,0 -0.24937,-1.20958 -0.24937,-2.76251 z m 2.96301,-0.81914 c 0.39787,-0.87322 -0.15452,-1.47527 -1.40849,-1.53511 l -0.89306,-0.0426 -0.0814,1.12448 -0.0814,1.12448 h 1.07922 c 0.8986,0 1.1304,-0.11234 1.38505,-0.67123 z m 3.38699,0.67123 c 0,-1.76389 0.10423,-2.91042 0.26458,-2.91042 0.16036,0 0.26459,1.14653 0.26459,2.91042 0,1.76389 -0.10423,2.91042 -0.26459,2.91042 -0.16035,0 -0.26458,-1.14653 -0.26458,-2.91042 z m 3.95635,0.42736 c 0.55567,-1.36568 1.1346,-2.70513 1.2865,-2.97656 l 0.27619,-0.49351 0.25174,0.66146 c 0.13845,0.3638 0.5777,1.43536 0.9761,2.38125 1.18217,2.80676 1.21228,2.91042 0.8452,2.91042 -0.18277,0 -0.46714,-0.35719 -0.63192,-0.79375 l -0.29961,-0.79375 h -1.23659 -1.23659 l -0.29961,0.79375 c -0.16478,0.43656 -0.44409,0.79375 -0.62067,0.79375 -0.20274,0 0.0513,-0.91515 0.68926,-2.48306 z m 2.39365,0.13412 c 0,-0.12775 -0.19121,-0.68991 -0.42492,-1.24924 l -0.42491,-1.01697 -0.33586,0.65393 c -0.18472,0.35966 -0.41825,0.92182 -0.51895,1.24924 l -0.1831,0.59531 h 0.94387 c 0.51913,0 0.94387,-0.10452 0.94387,-0.23227 z M 91.027742,91.672613 c -1.321255,-0.230392 -2.069933,-0.69931 -2.659001,-1.665402 -0.447493,-0.733904 -0.514149,-1.348107 -0.515009,-4.745614 l -9.9e-4,-3.902604 h 1.038336 1.038334 l 0.08615,3.726061 c 0.07689,3.325916 0.141298,3.76633 0.599733,4.101042 0.749573,0.547274 2.170671,0.468844 2.793701,-0.154186 l 0.529167,-0.529167 v -3.571875 -3.571875 h 1.190625 1.190625 l -0.0063,3.241146 c -0.0076,3.893865 -0.247452,5.072232 -1.233149,6.057932 -0.838012,0.838012 -2.573187,1.272444 -4.052205,1.014542 z m 13.387598,-0.133284 c -1.38281,-0.35111 -2.8079,-1.555401 -3.45551,-2.920135 -0.94289,-1.987002 -0.15752,-4.761069 1.78556,-6.30691 1.3599,-1.081881 3.7913,-1.285775 5.4206,-0.454565 1.06471,0.543171 2.44092,2.028867 2.44092,2.635102 0,0.605375 -2.11929,0.350586 -2.95867,-0.355703 -0.57463,-0.483521 -1.09545,-0.661459 -1.93607,-0.661459 -3.3387,0 -3.9755,5.173144 -0.74655,6.0647 1.04997,0.289912 2.30924,-0.07759 2.96171,-0.86434 0.42632,-0.514065 2.67958,-0.625153 2.67958,-0.132104 0,0.168164 -0.30381,0.704072 -0.67514,1.190903 -1.2477,1.635818 -3.40348,2.341009 -5.51643,1.804511 z m 48.1314,0.08084 c -1.33937,-0.285438 -2.52147,-1.093857 -3.33452,-2.280431 -0.87359,-1.274916 -0.92518,-4.381759 -0.0913,-5.498632 1.12533,-1.507246 2.40487,-2.298695 3.91938,-2.42429 1.93348,-0.160337 3.09573,0.279943 4.36019,1.651723 3.38677,3.674208 0.028,9.591987 -4.85373,8.55163 z m 3.07047,-3.086299 c 1.37923,-1.379236 1.41463,-2.526556 0.12149,-3.937619 -0.79207,-0.864299 -1.05701,-0.988301 -2.11158,-0.988301 -1.00914,0 -1.34698,0.141113 -2.07085,0.864984 -0.72387,0.723871 -0.86498,1.061709 -0.86498,2.070851 0,1.054566 0.124,1.319507 0.9883,2.111579 1.41106,1.293141 2.55838,1.257742 3.93762,-0.121494 z M 77.533992,86.518368 v -5.159375 h 1.058333 1.058334 v 4.101041 4.101042 h 1.852083 1.852083 v 1.058334 1.058333 h -2.910416 -2.910417 z m 37.570838,0 v -5.159375 h 1.19062 1.19063 v 5.159375 5.159375 h -1.19063 -1.19062 z m 6.3718,4.960937 c 0.012,-0.10914 0.93615,-2.401093 2.05371,-5.093229 l 2.03191,-4.894792 0.9468,-0.0796 0.94679,-0.0796 2.02788,4.974392 c 1.11534,2.735916 2.0273,5.063691 2.02658,5.172831 -8e-4,0.109141 -0.51803,0.198438 -1.14958,0.198438 h -1.14828 l -0.34928,-1.058333 -0.34928,-1.058334 h -1.94417 -1.94417 l -0.42346,1.058334 -0.42346,1.058333 h -1.1619 c -0.63904,0 -1.15208,-0.0893 -1.14009,-0.198438 z m 6.3238,-3.836458 c -0.002,-0.03638 -0.28959,-0.840052 -0.63818,-1.785938 -0.37597,-1.02018 -0.69277,-1.558342 -0.77878,-1.322916 -0.0797,0.218281 -0.37643,1.021953 -0.65931,1.785937 l -0.51433,1.389063 h 1.2975 c 0.71362,0 1.29552,-0.02977 1.2931,-0.06615 z m 7.9419,-1.124479 v -5.159375 l 1.12448,0.0024 1.12448,0.0024 1.78202,3.23868 1.78203,3.23868 0.004,-3.241146 0.004,-3.240976 h 1.05833 1.05834 v 5.174588 5.174589 l -1.10928,-0.08136 -1.10928,-0.08136 -1.6027,-2.968395 c -0.88149,-1.632616 -1.692,-2.97207 -1.80114,-2.976562 -0.10914,-0.0045 -0.19844,1.361051 -0.19844,3.034541 v 3.042708 h -1.05833 -1.05833 z"
       id="path1574" />
  </g>
</svg>
