<?xml version="1.0" encoding="UTF-8" standalone="no"?>
<!-- Created with Inkscape (http://www.inkscape.org/) -->

<svg
   version="1.1"
   id="svg250"
   width="363.85187mm"
   height="111.98668mm"
   viewBox="0 0 1375.1882 423.25675"
   sodipodi:docname="logo-3.svg"
   inkscape:version="1.1.1 (c3084ef, 2021-09-22)"
   xmlns:inkscape="http://www.inkscape.org/namespaces/inkscape"
   xmlns:sodipodi="http://sodipodi.sourceforge.net/DTD/sodipodi-0.dtd"
   xmlns="http://www.w3.org/2000/svg"
   xmlns:svg="http://www.w3.org/2000/svg">
  <defs
     id="defs254" />
  <sodipodi:namedview
     id="namedview252"
     pagecolor="#ffffff"
     bordercolor="#666666"
     borderopacity="1.0"
     inkscape:pageshadow="2"
     inkscape:pageopacity="0.0"
     inkscape:pagecheckerboard="0"
     showgrid="false"
     inkscape:snap-global="false"
     units="mm"
     fit-margin-top="0"
     fit-margin-left="0"
     fit-margin-right="0"
     fit-margin-bottom="0"
     inkscape:zoom="1.0264337"
     inkscape:cx="603.54603"
     inkscape:cy="248.43299"
     inkscape:window-width="2048"
     inkscape:window-height="1252"
     inkscape:window-x="3840"
     inkscape:window-y="28"
     inkscape:window-maximized="0"
     inkscape:current-layer="g256"
     inkscape:document-units="mm" />
  <g
     inkscape:groupmode="layer"
     inkscape:label="Image"
     id="g256"
     transform="translate(328.75468,88.436998)">
    <path
       style="fill:#000000;stroke-width:2.92467"
       d="m -5.889943,287.17211 v -47.64759 h 16.386467 c 19.004167,0 35.083852,5.67873 39.654258,14.00437 5.500113,10.01915 3.796712,25.42614 -3.757805,33.98838 -5.839477,6.61845 -9.887777,8.09308 -25.177507,9.17129 l -18.21926,1.28481 v 18.42316 c 0,14.45103 -0.9579665,18.4232 -4.4430694,18.4232 -3.7698937,0 -4.4430836,-7.21935 -4.4430836,-47.64762 z m 43.872363,-4.4441 c 7.97247,-7.24108 8.442082,-20.36547 0.964798,-26.96251 -3.03484,-2.67761 -12.365314,-5.65896 -20.734454,-6.62527 L 2.99621,247.38327 v 20.61634 20.6164 h 14.251803 c 10.248227,0 16.072869,-1.65402 20.734407,-5.888 z m 59.799759,4.4441 c 0,-40.42824 0.673189,-47.64759 4.443141,-47.64759 3.7699,0 4.44308,7.21935 4.44308,47.64759 0,40.42827 -0.67318,47.64762 -4.44308,47.64762 -3.769952,0 -4.443141,-7.21935 -4.443141,-47.64762 z m 53.317121,46.12748 c 0,-0.83606 11.99636,-18.99444 26.65858,-40.35199 14.66219,-21.35752 26.65855,-40.16565 26.65855,-41.79586 0,-1.79438 -9.93531,-2.96399 -25.17751,-2.96399 -20.40534,0 -25.17752,-0.82103 -25.17752,-4.33163 0,-3.59919 5.75951,-4.3316 34.06369,-4.3316 18.73503,0 34.06372,1.08933 34.06372,2.4207 0,1.3314 -11.99635,20.24144 -26.65858,42.02231 -14.66219,21.78087 -26.65854,40.18374 -26.65854,40.8953 0,0.71156 11.99635,1.29372 26.65854,1.29372 21.72179,0 26.65858,0.80213 26.65858,4.33155 0,3.60969 -5.92413,4.33163 -35.54474,4.33163 -19.54962,0 -35.54477,-0.68406 -35.54477,-1.52014 z m 137.82543,-40.4112 c 15.42751,-23.06225 28.05005,-42.55443 28.05005,-43.31598 0,-0.76159 -11.99635,-1.38466 -26.65859,-1.38466 -21.72174,0 -26.65851,-0.80218 -26.65851,-4.33163 0,-3.60966 5.92413,-4.3316 35.54473,-4.3316 19.5496,0 35.54472,0.58739 35.54472,1.30527 0,0.71787 -12.52156,19.88519 -27.82571,42.59405 l -27.82572,41.28884 27.82572,0.82649 c 22.0672,0.65546 27.82571,1.70128 27.82571,5.0535 0,3.48492 -6.48483,4.22706 -36.93619,4.22706 h -36.93627 z m 90.25335,-5.71628 v -47.64759 h 28.13956 c 22.67744,0 28.1396,0.81725 28.1396,4.21017 0,3.25362 -5.21534,4.40173 -22.95597,5.05348 l -22.95597,0.84344 -0.88834,16.60444 -0.88834,16.60446 h 23.84431 c 19.22021,0 23.84431,0.84001 23.84431,4.3316 0,3.48935 -4.60767,4.33162 -23.69651,4.33162 h -23.69649 v 17.32642 17.3264 h 23.69649 c 19.08884,0 23.69651,0.84223 23.69651,4.33155 0,3.54636 -5.10134,4.33163 -28.1396,4.33163 h -28.13956 z m 106.63421,0 v -47.64759 h 16.38646 c 36.0897,0 54.32093,18.90717 41.51342,43.0527 -2.36686,4.46216 -8.36503,9.75317 -13.32928,11.75784 -9.89085,3.99413 -11.01347,6.40426 -5.18095,11.12337 2.11471,1.71096 8.1957,9.01723 13.51329,16.23609 8.87683,12.05059 9.17406,13.12521 3.63013,13.12521 -3.99367,0 -10.82617,-6.31564 -20.17796,-18.65166 -9.9609,-13.13941 -16.10927,-18.68665 -20.80429,-18.77024 -6.24043,-0.1113 -6.66463,1.07617 -6.66463,18.65162 0,14.75955 -0.94939,18.77028 -4.4431,18.77028 -3.7699,0 -4.44309,-7.21935 -4.44309,-47.64762 z m 44.59645,-3.88159 c 7.98584,-6.30426 9.13158,-21.50108 2.13528,-28.32184 -2.8834,-2.81107 -10.55845,-4.65269 -20.48758,-4.91602 l -15.87694,-0.42105 -0.87582,19.49218 -0.87588,19.49222 h 14.61752 c 9.79238,0 16.84424,-1.75789 21.36342,-5.32549 z m 62.03777,3.88159 c 0,-40.42824 0.67315,-47.64759 4.44311,-47.64759 3.76989,0 4.44309,7.21935 4.44309,47.64759 0,40.42827 -0.6732,47.64762 -4.44309,47.64762 -3.76996,0 -4.44311,-7.21935 -4.44311,-47.64762 z m 51.21626,44.03796 c 20.39629,-49.24557 38.34432,-90.63409 40.00552,-92.25361 1.64734,-1.606 26.46583,53.68869 40.75898,90.80972 1.35987,3.53174 0.48071,5.05355 -2.91945,5.05355 -2.95209,0 -7.13406,-5.16013 -10.63488,-13.12228 l -5.76967,-13.12228 -21.25899,0.84942 -21.25895,0.84941 -4.57992,12.27288 c -3.19684,8.56675 -6.27965,12.27285 -10.20874,12.27285 -3.32578,0 -5.0172,-1.4769 -4.1339,-3.60966 z m 50.84215,-49.8793 c -3.99987,-10.35992 -7.27242,-19.45629 -7.27242,-20.21416 0,-3.71487 -5.41756,-0.74082 -6.69556,3.6756 -0.80429,2.77944 -4.27264,11.87578 -7.70738,20.21411 l -6.24509,15.16061 h 17.59646 17.59635 z M -109.74342,82.711924 c -18.38364,-5.076413 -31.25611,-14.60497 -39.13307,-28.967432 -6.15562,-11.223837 -6.66083,-16.333846 -7.54171,-76.281777 l -0.94412,-64.252057 h 19.457 19.45701 v 56.4542 c 0,62.624775 1.68183,69.88385 17.6886,76.347697 11.695386,4.72284 31.85457,2.108824 39.236362,-5.08774 8.84849,-8.626491 11.055424,-24.070694 11.13177,-77.900772 l 0.07079,-49.813385 h 17.772413 17.772351 v 62.179012 c 0,66.371643 -1.61571,75.678394 -15.692197,90.390552 -16.132121,16.860593 -51.881638,24.496065 -79.275089,16.931702 z m 236.15998,0.749258 C 110.60952,79.602807 85.220148,62.514465 75.97907,49.514185 43.514951,3.8439658 60.531426,-56.968102 112.32919,-80.390873 153.9213,-99.198692 207.0063,-80.9198 228.15308,-40.508897 l 6.00438,11.474222 h -20.49845 c -19.37474,0 -21.0522,-0.53987 -30.60022,-9.848316 -24.59532,-23.978088 -63.76597,-17.209514 -79.09823,13.667931 -15.142658,30.495602 0.0166,65.052565 32.7295,74.607493 15.37877,4.491979 33.07115,-0.747931 46.39978,-13.742139 9.52437,-9.285377 11.18963,-9.818028 30.69385,-9.818028 h 20.62306 L 226.1758,40.57572 C 207.61476,73.822788 163.90697,92.61231 126.41656,83.461182 Z M 931.1063,81.304901 C 894.7661,68.644834 867.91826,33.419007 867.91826,-1.6011978 c 0,-50.0674732 55.35847,-95.5593342 103.9276,-85.4044892 58.11284,12.150225 90.32894,69.893197 66.86824,119.85222 -19.1063,40.686437 -67.43954,62.452017 -107.6078,48.458368 z m 44.32814,-36.272218 c 22.49493,-9.16316 37.35076,-36.7949736 31.33126,-58.275877 -4.7333,-16.890517 -25.19635,-35.058934 -42.30383,-37.559976 -15.64835,-2.28772 -36.25399,5.779963 -46.1783,18.080052 -20.2463,25.0931488 -11.89827,60.595726 17.67312,75.159861 15.12119,7.447288 25.83796,8.151985 39.47775,2.59594 z M -328.75468,-1.7390025 V -87.06493 l 18.51289,0.859714 18.51287,0.859738 0.79511,67.139813 0.79511,67.139815 h 31.04704 31.04708 v 17.326414 17.32638 h -50.35507 -50.35503 z m 636.84329,0 V -87.06493 l 18.51287,0.859714 18.51289,0.859738 0.78524,84.46621319 0.78527,84.46620881 h -19.29817 -19.2981 z m 106.6342,83.6091165 c 0,-1.089355 15.63347,-39.539392 34.74102,-85.4444876 l 34.74109,-83.4637804 16.14352,0.846351 16.1435,0.846325 30.02217,72.193339 c 16.51223,39.706338 32.25828,77.716115 34.99125,84.466193 l 4.96907,12.27289 h -20.4636 -20.46364 l -5.67212,-16.604479 -5.67215,-16.604449 -33.85203,-0.80761 -33.85206,-0.807593 -5.8941,16.690126 -5.8941,16.690106 -19.99393,0.853901 c -10.9966,0.469609 -19.99389,-0.03749 -19.99389,-1.126832 z M 521.35557,17.891009 c -8.4e-4,-1.191205 -2.70045,-9.3129529 -5.9991,-18.04834288 -3.2987,-8.73540642 -8.15495,-21.61325312 -10.79172,-28.61744212 l -4.79409,-12.734859 -9.94126,26.807468 c -5.46767,14.74413644 -9.94123,28.596606 -9.94123,30.783254 0,2.997135 5.10343,3.97569 20.73445,3.97569 11.4039,0 20.73375,-0.974594 20.73295,-2.165768 z M 654.64982,-1.7331464 V -87.053212 l 19.56384,0.853855 19.56375,0.853879 28.56975,50.128655 28.56966,50.128655 1.481,-50.128655 1.48105,-50.128655 18.51287,-0.859738 18.51288,-0.859714 V -1.7390025 83.586944 H 772.3185 753.7324 l -29.5474,-52.263546 -29.5474,-52.263541 -0.80732,52.263541 -0.80733,52.263546 h -19.18657 -19.18656 z"
       id="path450" />
  </g>
</svg>
